<svg width="70" height="65" viewBox="0 0 70 65" fill="none" xmlns="http://www.w3.org/2000/svg">
<path d="M37.0776 6.83584C35.9167 5.72139 34.0833 5.72139 32.9224 6.83583L5.0776 33.5669C3.88237 34.7143 1.98327 34.6755 0.835842 33.4803C-0.311582 32.2851 -0.272825 30.386 0.922408 29.2385L28.7672 2.50751C32.2499 -0.835843 37.7501 -0.835834 41.2328 2.50752L69.0776 29.2385C70.2728 30.386 70.3116 32.2851 69.1642 33.4803C68.0167 34.6755 66.1176 34.7143 64.9224 33.5669L37.0776 6.83584Z" fill="white"/>
<path d="M10.2406 34.5037C10.089 34.8578 10.0037 35.247 10.0001 35.6558L10.2406 34.5037Z" fill="white"/>
<path d="M10.2406 34.5037C10.3939 34.1443 10.6203 33.8093 10.9194 33.5214L10.2406 34.5037Z" fill="white"/>
<path d="M10.9313 33.51C10.9273 33.5138 10.9233 33.5176 10.9194 33.5214L10.9313 33.51Z" fill="white"/>
<path fill-rule="evenodd" clip-rule="evenodd" d="M10.9313 33.51L32.7905 12.6445C34.0271 11.4641 35.973 11.4641 37.2095 12.6444L59.0686 33.51C59.0726 33.5138 59.0766 33.5176 59.0806 33.5214C59.3794 33.809 59.6057 34.1437 59.759 34.5027C59.9114 34.8585 59.997 35.2497 59.9999 35.6606C60 35.6697 60 35.6789 60 35.688V55.6827C60 60.6533 55.9706 64.6827 51 64.6827H19C14.0294 64.6827 10 60.6533 10 55.6827V35.6887M54 36.9664V55.6827C54 57.3396 52.6569 58.6827 51 58.6827H19C17.3431 58.6827 16 57.3396 16 55.6827V36.9664L35 18.83L54 36.9664Z" fill="white"/>
</svg>
