<svg xmlns="http://www.w3.org/2000/svg" xmlns:xlink="http://www.w3.org/1999/xlink" width="100" height="100" viewBox="0 0 100 100">
  <defs>
    <linearGradient id="linear-gradient" x1="0.093" y1="0.153" x2="0.892" y2="0.914" gradientUnits="objectBoundingBox">
      <stop offset="0" stop-color="#3a8eb7"/>
      <stop offset="1" stop-color="#4ebd86"/>
    </linearGradient>
  </defs>
  <g id="Logo_HR" transform="translate(-373 -152)">
    <rect id="Rectangle_2" data-name="Rectangle 2" width="100" height="100" transform="translate(373 152)" fill="rgba(255,255,255,0)"/>
    <g id="Logo_HR-2" data-name="Logo HR" transform="translate(24.779 -218.685)">
      <g id="Groupe_14" data-name="Groupe 14" transform="translate(366 398)">
        <path id="Tracé_14" data-name="Tracé 14" d="M878.992,1884.839q0-10.5,0-21.005c0-1.526.053-1.579,1.555-1.583,2.285-.006,4.569,0,6.854,0,1.609,0,1.646.032,1.646,1.605q0,9.748-.01,19.5c0,1.684,0,1.69,1.66,1.69q17.019,0,34.038,0a11.946,11.946,0,0,0,3-.248,6.665,6.665,0,0,0,5.341-7.152,6.341,6.341,0,0,0-6.208-6.2c-2.85-.215-5.727-.083-8.592-.11-.818-.008-.922.519-.92,1.163q.012,3.017,0,6.034c0,1.527-.1,1.623-1.668,1.629-2.362.01-4.724-.016-7.086.021-.933.015-1.313-.313-1.307-1.282q.049-7.659.006-15.318c-.006-1.024.4-1.345,1.379-1.34,6.041.031,12.083-.061,18.122.061a17.766,17.766,0,0,1,10.75,3.5,14.254,14.254,0,0,1,5.545,10.451c.484,5.064-.755,9.6-4.645,13.162a18,18,0,0,1-3.657,2.448c-1.264.686-1.282.674-.435,1.909q4.136,6.031,8.282,12.054a5.055,5.055,0,0,1,.323.482c.174.328.615.607.413,1.015s-.691.25-1.057.252c-2.982.011-5.964-.027-8.945.021a2.115,2.115,0,0,1-1.986-1.1c-2.536-3.8-5.139-7.548-7.667-11.35a2.426,2.426,0,0,0-2.268-1.246c-10.261.033-20.523.015-30.785.016-1.623,0-1.629.011-1.631,1.614,0,3.481,0,6.963,0,10.444,0,1.527-.063,1.588-1.552,1.592q-3.485.011-6.97,0c-1.437,0-1.523-.082-1.524-1.5Q878.987,1895.457,878.992,1884.839Z" transform="translate(-878.991 -1862.241)" fill="url(#linear-gradient)"/>
        <path id="Tracé_15" data-name="Tracé 15" d="M982.884,1990.3c1.316,0,2.633.017,3.949,0,.74-.012,1.052.318,1.049,1.045q-.015,3.249.008,6.5c.006.771-.3,1.126-1.1,1.118-2.633-.024-5.266-.019-7.9-.01-.728,0-1.054-.311-1.049-1.047.015-2.166.02-4.332-.007-6.5-.01-.791.312-1.125,1.1-1.109C980.251,1990.313,981.567,1990.294,982.884,1990.3Z" transform="translate(-949.517 -1953.605)" fill="url(#linear-gradient)"/>
      </g>
    </g>
  </g>
</svg>
