<svg width="70" height="70" viewBox="0 0 70 70" fill="none" xmlns="http://www.w3.org/2000/svg">
<path d="M17 20C15.3431 20 14 21.3431 14 23C14 24.6569 15.3431 26 17 26H53C54.6569 26 56 24.6569 56 23C56 21.3431 54.6569 20 53 20H17Z" fill="white"/>
<path d="M17 32C15.3431 32 14 33.3431 14 35C14 36.6569 15.3431 38 17 38H53C54.6569 38 56 36.6569 56 35C56 33.3431 54.6569 32 53 32H17Z" fill="white"/>
<path d="M14 47C14 45.3431 15.3431 44 17 44H37C38.6569 44 40 45.3431 40 47C40 48.6569 38.6569 50 37 50H17C15.3431 50 14 48.6569 14 47Z" fill="white"/>
<path fill-rule="evenodd" clip-rule="evenodd" d="M55 0H15C6.71573 0 0 6.71573 0 15V55C0 63.2843 6.71573 70 15 70H55C63.2843 70 70 63.2843 70 55V15C70 6.71573 63.2843 0 55 0ZM6 15C6 10.0294 10.0294 6 15 6H55C59.9706 6 64 10.0294 64 15V55C64 59.9706 59.9706 64 55 64H15C10.0294 64 6 59.9706 6 55V15Z" fill="white"/>
</svg>
