<svg width="70" height="70" viewBox="0 0 70 70" fill="none" xmlns="http://www.w3.org/2000/svg">
<path fill-rule="evenodd" clip-rule="evenodd" d="M35 2.5926C35 1.16075 36.1607 0 37.5926 0C55.4907 0 70 14.5093 70 32.4074C70 33.8393 68.8393 35 67.4074 35H38.1818C36.4245 35 35 33.5755 35 31.8182V2.5926ZM41 6.2178C52.8594 7.74559 62.2544 17.1406 63.7822 29H41V6.2178Z" fill="white"/>
<path d="M28.6968 4.64122C30.4508 4.27893 32 5.69307 32 7.48412C32 9.0211 30.844 10.2957 29.3465 10.6419C18.2625 13.2042 10 23.1372 10 35C10 48.8071 21.1929 60 35 60C46.8628 60 56.7958 51.7375 59.3581 40.6535C59.7043 39.156 60.9789 38 62.5159 38C64.3069 38 65.721 39.5492 65.3588 41.3032C62.4467 55.4016 49.9611 66 35 66C17.8792 66 4 52.1208 4 35C4 20.0389 14.5984 7.55325 28.6968 4.64122Z" fill="white"/>
</svg>
